<svg width="36" height="35" viewBox="0 0 36 35" fill="none" xmlns="http://www.w3.org/2000/svg">
<circle cx="17.9897" cy="17.5" r="17" stroke="white"/>
<path d="M21.7274 9.8252H15.2524C14.7717 9.8252 14.3107 10.0162 13.9708 10.3561C13.6309 10.696 13.4399 11.157 13.4399 11.6377V24.3627C13.4399 24.8434 13.6309 25.3044 13.9708 25.6443C14.3107 25.9842 14.7717 26.1752 15.2524 26.1752H21.7274C22.2081 26.1752 22.6692 25.9842 23.0091 25.6443C23.349 25.3044 23.5399 24.8434 23.5399 24.3627V11.6377C23.5399 11.157 23.349 10.696 23.0091 10.3561C22.6692 10.0162 22.2081 9.8252 21.7274 9.8252ZM22.1899 24.3627C22.1899 24.4854 22.1412 24.603 22.0545 24.6897C21.9677 24.7765 21.8501 24.8252 21.7274 24.8252H15.2524C15.1298 24.8252 15.0121 24.7765 14.9254 24.6897C14.8387 24.603 14.7899 24.4854 14.7899 24.3627V11.6377C14.7899 11.515 14.8387 11.3974 14.9254 11.3107C15.0121 11.2239 15.1298 11.1752 15.2524 11.1752H21.7274C21.8501 11.1752 21.9677 11.2239 22.0545 11.3107C22.1412 11.3974 22.1899 11.515 22.1899 11.6377V24.3627Z" fill="white"/>
<path d="M19.4513 22H17.5282C17.2528 22 16.9887 22.1054 16.7939 22.2929C16.5992 22.4804 16.4897 22.7348 16.4897 23C16.4897 23.2652 16.5992 23.5196 16.7939 23.7071C16.9887 23.8946 17.2528 24 17.5282 24H19.4513C19.7267 24 19.9908 23.8946 20.1856 23.7071C20.3803 23.5196 20.4897 23.2652 20.4897 23C20.4897 22.7348 20.3803 22.4804 20.1856 22.2929C19.9908 22.1054 19.7267 22 19.4513 22Z" fill="#F7971F"/>
</svg>
