<svg width="18" height="17" viewBox="0 0 18 17" fill="none" xmlns="http://www.w3.org/2000/svg">
<path d="M9.72607 8.49999C9.72594 8.54381 9.73446 8.58722 9.75113 8.62773C9.76781 8.66825 9.79232 8.70508 9.82325 8.73611C9.85419 8.76713 9.89094 8.79175 9.93141 8.80855C9.97188 8.82535 10.0153 8.83399 10.0591 8.83399H15.7261C16.0354 8.83346 16.3319 8.71034 16.5507 8.4916C16.7694 8.27286 16.8925 7.97634 16.8931 7.66699V6.33399C16.8928 6.02457 16.7698 5.72789 16.551 5.50909C16.3322 5.29029 16.0355 5.16726 15.7261 5.16699H10.0591C10.0153 5.16699 9.97204 5.17561 9.93164 5.19234C9.89124 5.20908 9.85453 5.2336 9.82361 5.26453C9.79269 5.29545 9.76816 5.33216 9.75142 5.37256C9.73469 5.41296 9.72607 5.45626 9.72607 5.49999V8.49999ZM3.56007 8.83399H8.39307C8.43689 8.83399 8.48027 8.82535 8.52074 8.80855C8.56121 8.79175 8.59796 8.76713 8.6289 8.73611C8.65983 8.70508 8.68434 8.66825 8.70101 8.62773C8.71769 8.58722 8.72621 8.54381 8.72607 8.49999V5.49999C8.72607 5.41168 8.69099 5.32698 8.62854 5.26453C8.56609 5.20208 8.48139 5.16699 8.39307 5.16699H2.39307C2.08365 5.16726 1.78697 5.29029 1.56817 5.50909C1.34938 5.72789 1.22634 6.02457 1.22607 6.33399V7.66699C1.2266 7.97634 1.34972 8.27286 1.56846 8.4916C1.78721 8.71034 2.08373 8.83346 2.39307 8.83399H3.56007ZM8.72707 10.166C8.72707 10.1222 8.71843 10.0788 8.70163 10.0383C8.68483 9.99786 8.66022 9.96111 8.62919 9.93017C8.59816 9.89924 8.56133 9.87473 8.52081 9.85805C8.4803 9.84138 8.43689 9.83286 8.39307 9.83299H2.89307C2.84934 9.83299 2.80604 9.84161 2.76564 9.85834C2.72524 9.87507 2.68853 9.8996 2.65761 9.93053C2.62669 9.96145 2.60216 9.99816 2.58542 10.0386C2.56869 10.079 2.56007 10.1223 2.56007 10.166V15.333C2.5606 15.6423 2.68372 15.9389 2.90246 16.1576C3.12121 16.3763 3.41773 16.4995 3.72707 16.5H8.39307C8.43697 16.5001 8.48046 16.4916 8.52105 16.4748C8.56163 16.4581 8.5985 16.4335 8.62954 16.4025C8.66058 16.3714 8.68518 16.3345 8.70192 16.294C8.71866 16.2534 8.72721 16.2099 8.72707 16.166V10.166ZM10.0601 9.83299C10.0163 9.83286 9.97285 9.84138 9.93233 9.85805C9.89182 9.87473 9.85499 9.89924 9.82396 9.93017C9.79293 9.96111 9.76831 9.99786 9.75152 10.0383C9.73472 10.0788 9.72607 10.1222 9.72607 10.166V16.166C9.72594 16.2098 9.73446 16.2532 9.75113 16.2937C9.76781 16.3343 9.79232 16.3711 9.82325 16.4021C9.85419 16.4331 9.89094 16.4578 9.93141 16.4745C9.97188 16.4913 10.0153 16.5 10.0591 16.5H14.3931C14.7022 16.4989 14.9983 16.3756 15.2167 16.157C15.4352 15.9383 15.5583 15.6421 15.5591 15.333V10.166C15.5591 10.0777 15.524 9.99298 15.4615 9.93053C15.3991 9.86808 15.3144 9.83299 15.2261 9.83299H10.0591H10.0601Z" fill="#33C5FF"/>
<path d="M9.7542 4.97117C9.83525 5.05214 9.93579 5.11087 10.0461 5.1417C10.1565 5.17253 10.2729 5.17441 10.3842 5.14717C11.1722 4.95417 13.0702 4.44417 13.6502 3.86417C14.0198 3.49393 14.2271 2.99203 14.2267 2.4689C14.2262 1.94577 14.0179 1.44425 13.6477 1.07467C13.2775 0.705089 12.7756 0.497725 12.2524 0.498193C11.7293 0.498662 11.2278 0.706926 10.8582 1.07717C10.3542 1.58117 9.87219 3.12817 9.57619 4.34317C9.55209 4.45442 9.55571 4.56989 9.58675 4.6794C9.6178 4.78892 9.6753 4.88912 9.7542 4.97117ZM11.8042 2.01917C11.8625 1.95593 11.9329 1.90513 12.0114 1.86982C12.0898 1.83451 12.1745 1.81542 12.2605 1.8137C12.3465 1.81197 12.4319 1.82764 12.5117 1.85978C12.5915 1.89191 12.6639 1.93984 12.7247 2.00068C12.7855 2.06153 12.8333 2.13403 12.8654 2.21384C12.8974 2.29364 12.913 2.3791 12.9112 2.46508C12.9094 2.55106 12.8902 2.63579 12.8548 2.71416C12.8194 2.79254 12.7685 2.86295 12.7052 2.92117C12.2285 3.19754 11.716 3.40684 11.1822 3.54317C11.3175 3.00884 11.5265 2.49592 11.8032 2.01917H11.8042ZM8.8742 4.34017C8.5782 3.12917 8.0962 1.58217 7.5932 1.07617C7.22348 0.706191 6.72194 0.498235 6.1989 0.498047C5.67586 0.497859 5.17417 0.705456 4.8042 1.07517C4.43422 1.44488 4.22626 1.94642 4.22607 2.46946C4.22589 2.9925 4.43348 3.49419 4.8032 3.86417C5.3822 4.44417 7.2802 4.95417 8.0702 5.14617C8.18125 5.17335 8.29742 5.17154 8.40757 5.14089C8.51772 5.11024 8.61814 5.0518 8.69919 4.97117C8.77788 4.88862 8.83501 4.78795 8.86554 4.67807C8.89606 4.56819 8.89903 4.45147 8.8742 4.34017ZM5.74619 2.92017C5.63474 2.79898 5.57445 2.63939 5.57794 2.47477C5.58143 2.31016 5.64842 2.15327 5.76491 2.03691C5.8814 1.92054 6.03837 1.85372 6.20299 1.85042C6.3676 1.84711 6.52713 1.90758 6.6482 2.01917C6.9242 2.49517 7.1332 3.00917 7.2682 3.54217C6.73449 3.40683 6.22224 3.19682 5.74619 2.92017Z" fill="#33C5FF"/>
</svg>
