<svg width="36" height="35" viewBox="0 0 36 35" fill="none" xmlns="http://www.w3.org/2000/svg">
<circle cx="17.9897" cy="17.5" r="17" stroke="white"/>
<path fill-rule="evenodd" clip-rule="evenodd" d="M17.7174 9C14.2804 9 11.4897 11.7906 11.4897 15.2277C11.4897 16.2907 11.9668 17.7449 12.673 19.2856C13.6732 21.4703 15.1199 23.8518 16.1057 25.4965C16.4358 26.0775 17.0529 26.4375 17.7218 26.4375C18.0507 26.4375 18.3737 26.3502 18.6577 26.1844C18.9418 26.0186 19.1767 25.7804 19.3385 25.494C20.3243 23.8518 21.7673 21.4703 22.7656 19.285C23.4699 17.7443 23.9451 16.2907 23.9451 15.2277C23.9451 11.7906 21.1551 9 17.7174 9ZM17.7174 10.2455C20.4676 10.2455 22.6996 12.4782 22.6996 15.2277C22.6996 16.1575 22.2493 17.4192 21.6328 18.7675C20.6525 20.9123 19.2326 23.2496 18.2655 24.8619L18.2561 24.8787C18.2029 24.9737 18.1253 25.0527 18.0314 25.1078C17.9375 25.1628 17.8306 25.1919 17.7218 25.192C17.6129 25.192 17.506 25.163 17.4121 25.1079C17.3181 25.0529 17.2406 24.9737 17.1874 24.8787C17.1843 24.8731 17.1812 24.8675 17.1781 24.8625C16.2109 23.2496 14.7879 20.9123 13.8052 18.7669C13.1874 17.4192 12.7353 16.1575 12.7353 15.2277C12.7353 12.4782 14.9679 10.2455 17.7174 10.2455ZM17.7218 12.7366C16.3467 12.7366 15.2307 13.8526 15.2307 15.2277C15.2307 16.6028 16.3467 17.7188 17.7218 17.7188C19.0969 17.7188 20.2129 16.6028 20.2129 15.2277C20.2129 13.8526 19.0969 12.7366 17.7218 12.7366ZM17.7218 13.9821C18.4093 13.9821 18.9673 14.5401 18.9673 15.2277C18.9673 15.9152 18.4093 16.4732 17.7218 16.4732C17.0342 16.4732 16.4762 15.9152 16.4762 15.2277C16.4762 14.5401 17.0342 13.9821 17.7218 13.9821Z" fill="white"/>
<circle cx="17.7216" cy="15.3271" r="2.79" fill="#F7971F"/>
</svg>
