<svg width="16" height="17" viewBox="0 0 16 17" fill="none" xmlns="http://www.w3.org/2000/svg">
<path d="M9.2002 2.1001V5.1221C9.20046 5.32226 9.28009 5.51414 9.42162 5.65567C9.56315 5.7972 9.75504 5.87683 9.9552 5.8771H12.9772" stroke="#1A202C" stroke-linecap="round" stroke-linejoin="round"/>
<path d="M5.4219 6.6331H6.1779M5.4219 9.6551H9.9559M5.4219 12.6781H9.9559M11.4669 15.7001H3.9099C3.50933 15.6998 3.12526 15.5405 2.84211 15.2572C2.55896 14.9738 2.3999 14.5897 2.3999 14.1891V3.6101C2.40017 3.2097 2.55934 2.82578 2.84246 2.54266C3.12559 2.25954 3.50951 2.10036 3.9099 2.1001H9.1999L12.9779 5.8771V14.1881C12.978 14.3866 12.939 14.5832 12.8632 14.7666C12.7873 14.9501 12.676 15.1168 12.5357 15.2572C12.3954 15.3976 12.2288 15.509 12.0454 15.585C11.862 15.661 11.6654 15.7001 11.4669 15.7001Z" stroke="#1A202C" stroke-linecap="round" stroke-linejoin="round"/>
</svg>
